HIERARCHY
ROOT Hips
{
 OFFSET 0.000000 0.000000 0.000000
 CHANNELS 6 Xposition Yposition Zposition Yrotation Xrotation Zrotation
 JOINT Chest
 {
  OFFSET 0.000000 9.585900 0.002600
  CHANNELS 3 Yrotation Xrotation Zrotation
  JOINT Chest2
  {
   OFFSET 0.000000 9.601200 -0.005300
   CHANNELS 3 Yrotation Xrotation Zrotation
   JOINT Chest3
   {
    OFFSET 0.000000 9.561800 0.000000
    CHANNELS 3 Yrotation Xrotation Zrotation
    JOINT Chest4
    {
     OFFSET 0.000000 9.552100 0.000000
     CHANNELS 3 Yrotation Xrotation Zrotation
     JOINT Neck
     {
      OFFSET 0.000000 14.453000 0.000000
      CHANNELS 3 Yrotation Xrotation Zrotation
      JOINT Head
      {
       OFFSET 0.000000 8.936500 -0.011300
       CHANNELS 3 Yrotation Xrotation Zrotation
       End Site
       {
        OFFSET 0.000000 17.073600 -0.006000
       }
      }
     }
     JOINT RightCollar
     {
      OFFSET -2.921100 9.558500 0.000000
      CHANNELS 3 Yrotation Xrotation Zrotation
      JOINT RightShoulder
      {
       OFFSET -13.519700 0.000000 0.000000
       CHANNELS 3 Yrotation Xrotation Zrotation
       JOINT RightElbow
       {
        OFFSET 0.000000 -29.696600 0.000000
        CHANNELS 3 Yrotation Xrotation Zrotation
        JOINT RightWrist
        {
         OFFSET 0.000000 -24.004700 0.000000
         CHANNELS 3 Yrotation Xrotation Zrotation
         End Site
         {
          OFFSET 0.000000 -17.728500 0.000000
         }
        }
       }
      }
     }
     JOINT LeftCollar
     {
      OFFSET 2.921100 9.558500 0.000000
      CHANNELS 3 Yrotation Xrotation Zrotation
      JOINT LeftShoulder
      {
       OFFSET 13.519700 0.000000 0.000000
       CHANNELS 3 Yrotation Xrotation Zrotation
       JOINT LeftElbow
       {
        OFFSET 0.000000 -29.696600 0.000000
        CHANNELS 3 Yrotation Xrotation Zrotation
        JOINT LeftWrist
        {
         OFFSET 0.000000 -24.004700 0.000000
         CHANNELS 3 Yrotation Xrotation Zrotation
         End Site
         {
          OFFSET 0.000000 -17.728500 0.000000
         }
        }
       }
      }
     }
    }
   }
  }
 }
 JOINT RightHip
 {
  OFFSET -7.771700 -0.012900 -0.001300
  CHANNELS 3 Yrotation Xrotation Zrotation
  JOINT RightKnee
  {
   OFFSET 0.000000 -40.869800 0.001200
   CHANNELS 3 Yrotation Xrotation Zrotation
   JOINT RightAnkle
   {
    OFFSET 0.000000 -39.717900 0.002100
    CHANNELS 3 Yrotation Xrotation Zrotation
    JOINT RightToe
    {
     OFFSET 0.000000 -4.965400 11.033500
     CHANNELS 3 Yrotation Xrotation Zrotation
     End Site
     {
      OFFSET 0.000000 -1.423100 5.872300
     }
    }
   }
  }
 }
 JOINT LeftHip
 {
  OFFSET 7.771700 -0.012900 -0.001300
  CHANNELS 3 Yrotation Xrotation Zrotation
  JOINT LeftKnee
  {
   OFFSET 0.000000 -40.869800 0.001200
   CHANNELS 3 Yrotation Xrotation Zrotation
   JOINT LeftAnkle
   {
    OFFSET 0.000000 -39.717900 0.002100
    CHANNELS 3 Yrotation Xrotation Zrotation
    JOINT LeftToe
    {
     OFFSET 0.000000 -4.965400 11.033500
     CHANNELS 3 Yrotation Xrotation Zrotation
     End Site
     {
      OFFSET 0.000000 -1.423100 5.872300
     }
    }
   }
  }
 }
}
MOTION
Frames: 7
Frame Time: 0.008333
0.000000 85.388000 0.000000 0.000000 -5.767877 0.000000 0.000000 11.653817 0.000000 0.000000 -5.885947 0.000000 0.000000 -0.000000 0.000000 0.000000 -0.000000 0.000000 0.000000 12.528835 0.000000 0.000000 0.711642 0.000000 0.000000 -0.000000 0.000000 0.000000 0.000000 -90.000000 0.000000 -2.309062 0.000000 0.000000 2.309062 0.000000 0.000000 -0.000000 0.000000 0.000000 -0.000000 90.000000 0.000000 -2.309062 0.000000 0.000000 2.309062 0.000000 0.000000 8.520406 0.000000 0.000000 1.905762 0.000000 -0.000000 -4.658285 0.000000 0.000000 -0.000000 0.000000 0.000000 8.520406 0.000000 0.000000 1.905762 0.000000 -0.000000 -4.658285 0.000000 0.000000 -0.000000 0.000000
-16.046875 57.952364 64.858827 174.852488 -30.650127 -2.308117 4.976387 19.364059 4.839839 0.533333 2.496600 0.342041 0.881072 4.090790 0.572832 4.022386 16.896129 2.862553 -0.902320 15.163835 -0.943213 -1.345349 -7.634497 -1.423268 1.303096 -3.926628 -0.696221 13.315558 -14.232065 -21.933999 -62.756266 -81.015566 107.973457 16.002998 -19.697639 -51.359020 -7.287561 -4.783955 -1.892277 -2.587686 -10.836485 5.958777 -116.443617 -83.476813 77.030380 -7.030034 -10.289631 30.217345 9.891022 -40.423583 -4.447859 -0.814237 67.745308 -0.881691 5.071207 5.692957 8.291789 -0.067901 0.157758 -0.037871 -6.315853 -46.964783 6.866079 25.158125 62.554445 20.542488 -12.804475 35.099768 5.140346 0.175628 -16.079436 -5.927998
-16.051219 57.954075 64.853758 174.846384 -30.661744 -2.297990 4.986831 19.374321 4.838035 0.533020 2.495957 0.341845 0.876131 4.092421 0.571191 4.026687 16.893373 2.861204 -0.907383 15.163893 -0.943032 -1.347119 -7.638118 -1.426728 1.303441 -3.932842 -0.693627 13.319474 -14.236311 -21.944637 -62.734230 -81.010975 107.950936 15.997722 -19.696727 -51.362074 -7.295588 -4.784208 -1.887810 -2.592244 -10.839252 5.965768 -116.431092 -83.476341 77.014764 -7.028175 -10.291100 30.215260 9.909025 -40.407989 -4.459351 -0.770920 67.750720 -0.845424 5.058659 5.692960 8.301795 -0.070023 0.152335 -0.037627 -6.292613 -46.949150 6.848820 25.172984 62.560458 20.547323 -12.767010 35.058447 5.184940 0.151837 -16.054705 -5.936419
-16.060633 57.956293 64.846988 174.833522 -30.677017 -2.258443 4.993992 19.389481 4.810650 0.532781 2.495210 0.341720 0.875343 4.091711 0.569182 4.027924 16.888528 2.860519 -0.916470 15.160493 -0.952591 -1.352923 -7.649660 -1.443923 1.298566 -3.932659 -0.691842 13.321526 -14.234187 -21.948705 -62.726448 -81.007733 107.941853 15.997514 -19.695821 -51.360751 -7.311121 -4.785192 -1.877190 -2.590561 -10.846162 5.987547 -116.442657 -83.499979 77.025847 -7.030667 -10.291470 30.209266 9.955048 -40.386640 -4.512823 -0.747702 67.763725 -0.822531 5.059409 5.684329 8.308308 -0.068721 0.153771 -0.035638 -6.226940 -46.917700 6.787502 25.164951 62.552156 20.532252 -12.752873 34.990282 5.208600 0.146309 -15.999344 -5.939410
-16.067351 57.957851 64.841999 174.828306 -30.678140 -2.243422 4.999228 19.388796 4.805173 0.530803 2.496187 0.338425 0.877969 4.089523 0.569198 4.022751 16.891114 2.858939 -0.920001 15.150398 -0.963046 -1.380311 -7.686331 -1.483378 1.297531 -3.937109 -0.691214 13.326784 -14.233328 -21.952796 -62.714239 -81.004598 107.927341 16.001085 -19.704945 -51.358894 -7.323267 -4.799062 -1.867105 -2.578262 -10.838044 5.987183 -116.460744 -83.503315 77.039482 -7.034657 -10.289995 30.206673 10.023016 -40.378887 -4.573579 -0.761284 67.771415 -0.794497 5.059594 5.688484 8.308104 -0.069502 0.147368 -0.034135 -6.204994 -46.908180 6.767920 25.164510 62.553055 20.522541 -12.732980 34.943435 5.227334 0.144651 -15.961827 -5.941558
-16.072800 57.958994 64.838294 174.836394 -30.668492 -2.244725 4.994704 19.374454 4.808812 0.529674 2.499964 0.336018 0.881392 4.085678 0.572745 4.023083 16.886165 2.860113 -0.935056 15.136311 -0.977418 -1.389928 -7.678472 -1.493476 1.286463 -3.934574 -0.695899 13.343396 -14.246116 -21.965413 -62.684269 -80.987969 107.897978 15.993561 -19.707385 -51.361986 -7.333461 -4.793580 -1.872137 -2.576035 -10.836636 5.988878 -116.518787 -83.494429 77.093327 -7.030942 -10.291881 30.201662 10.032100 -40.380887 -4.589622 -0.754453 67.773868 -0.786045 5.056735 5.683633 8.315547 -0.068470 0.150171 -0.033450 -6.208845 -46.912815 6.764367 25.163419 62.552737 20.517932 -12.719309 34.914518 5.225439 0.145441 -15.935145 -5.933185
-16.076453 57.961204 64.833588 174.844024 -30.666214 -2.254549 4.994776 19.363756 4.822084 0.524223 2.500457 0.336222 0.880340 4.082297 0.572808 4.020365 16.880053 2.861426 -0.939734 15.144338 -0.987527 -1.390917 -7.674426 -1.497913 1.285496 -3.928070 -0.702552 13.346444 -14.238639 -21.964346 -62.747860 -80.998682 107.970062 15.992309 -19.719037 -51.372736 -7.333060 -4.781518 -1.879427 -2.579240 -10.845400 5.993356 -116.513108 -83.489822 77.087887 -7.039229 -10.297098 30.193873 10.031975 -40.375468 -4.590537 -0.761607 67.773782 -0.789692 5.054454 5.682180 8.323645 -0.071590 0.155526 -0.033275 -6.220633 -46.910002 6.773363 25.181080 62.559744 20.525189 -12.677025 34.863263 5.249814 0.111325 -15.896585 -5.922997
